<svg width="112" height="112" viewBox="0 0 112 112" fill="none" xmlns="http://www.w3.org/2000/svg">
<g filter="url(#filter0_d)">
<rect x="6" width="100" height="100" rx="25" fill="#8767E1"/>
</g>
<g filter="url(#filter1_d)">
<path d="M56.6123 56.0008H73.9749C73.2733 60.4134 68.73 68.9357 56.6123 68.9357C51.5459 68.8498 46.7165 66.8172 43.1646 63.2757C39.6127 59.7342 37.6223 54.9672 37.6223 50.0015C37.6223 45.0358 39.6127 40.2687 43.1646 36.7272C46.7165 33.1857 51.5459 31.1531 56.6123 31.0672C61.1433 30.9748 65.5289 32.6355 68.8192 35.6895L77.12 27.8442C71.5799 22.7238 64.2271 19.9121 56.6123 20.0021C48.4934 20.0021 40.7071 23.1627 34.9661 28.7886C29.2252 34.4145 26 42.0448 26 50.001C26 57.9573 29.2252 65.5876 34.9661 71.2135C40.7071 76.8394 48.4934 80 56.6123 80C74.2806 80 86 67.8279 86 50.6853C85.9946 49.017 85.8333 47.3527 85.5182 45.7132L56.6123 56.0008Z" fill="white"/>
<path d="M56.6123 56.0008H73.9749C73.2733 60.4134 68.73 68.9357 56.6123 68.9357C51.5459 68.8498 46.7165 66.8172 43.1646 63.2757C39.6127 59.7342 37.6223 54.9672 37.6223 50.0015C37.6223 45.0358 39.6127 40.2687 43.1646 36.7272C46.7165 33.1857 51.5459 31.1531 56.6123 31.0672C61.1433 30.9748 65.5289 32.6355 68.8192 35.6895L77.12 27.8442C71.5799 22.7238 64.2271 19.9121 56.6123 20.0021C48.4934 20.0021 40.7071 23.1627 34.9661 28.7886C29.2252 34.4145 26 42.0448 26 50.001C26 57.9573 29.2252 65.5876 34.9661 71.2135C40.7071 76.8394 48.4934 80 56.6123 80C74.2806 80 86 67.8279 86 50.6853C85.9946 49.017 85.8333 47.3527 85.5182 45.7132L56.6123 56.0008Z" stroke="white"/>
</g>
<defs>
<filter id="filter0_d" x="0" y="0" width="112" height="112" filterUnits="userSpaceOnUse" color-interpolation-filters="sRGB">
<feFlood flood-opacity="0" result="BackgroundImageFix"/>
<feColorMatrix in="SourceAlpha" type="matrix" values="0 0 0 0 0 0 0 0 0 0 0 0 0 0 0 0 0 0 127 0"/>
<feOffset dy="6"/>
<feGaussianBlur stdDeviation="3"/>
<feColorMatrix type="matrix" values="0 0 0 0 0 0 0 0 0 0 0 0 0 0 0 0 0 0 0.55 0"/>
<feBlend mode="normal" in2="BackgroundImageFix" result="effect1_dropShadow"/>
<feBlend mode="normal" in="SourceGraphic" in2="effect1_dropShadow" result="shape"/>
</filter>
<filter id="filter1_d" x="15.5" y="14.5" width="81" height="81" filterUnits="userSpaceOnUse" color-interpolation-filters="sRGB">
<feFlood flood-opacity="0" result="BackgroundImageFix"/>
<feColorMatrix in="SourceAlpha" type="matrix" values="0 0 0 0 0 0 0 0 0 0 0 0 0 0 0 0 0 0 127 0"/>
<feOffset dy="5"/>
<feGaussianBlur stdDeviation="5"/>
<feColorMatrix type="matrix" values="0 0 0 0 0 0 0 0 0 0 0 0 0 0 0 0 0 0 0.35 0"/>
<feBlend mode="normal" in2="BackgroundImageFix" result="effect1_dropShadow"/>
<feBlend mode="normal" in="SourceGraphic" in2="effect1_dropShadow" result="shape"/>
</filter>
</defs>
</svg>
