<svg xmlns="http://www.w3.org/2000/svg" xmlns:xlink="http://www.w3.org/1999/xlink" width="296" height="220" viewBox="0 0 296 220">
  <defs>
    <clipPath id="clip-path">
      <rect id="Rectangle_4" data-name="Rectangle 4" width="296" height="220" fill="#fff"/>
    </clipPath>
  </defs>
  <g id="Group_3" data-name="Group 3" clip-path="url(#clip-path)">
    <path id="Path_30" data-name="Path 30" d="M291.149,97.965c-.054.312-.107.624-.165.936a114.674,114.674,0,0,1-9.589,30.285q-.227.469-.461.937a86.536,86.536,0,0,1-10.8,16.615A34.538,34.538,0,0,1,262.368,154c-4.164,2.647-9.032,3.723-13.817,4.6-4.972.917-10.008,1.672-15.033,2.508q-2.672.435-5.31.911c-4.854.875-9.673,1.887-14.376,3.228a74.827,74.827,0,0,0-16.769,6.878q-.636.361-1.26.744c-.416.251-.838.507-1.244.769s-.813.521-1.215.786l-.621.418c-.2.134-.405.279-.606.412-.6.407-1.188.836-1.778,1.249l-.022.017c-.389.278-.774.557-1.16.836-2.177,1.608-4.307,3.291-6.428,4.98l-1.339,1.067q-1.036.819-2.073,1.636c-.4.321-.816.638-1.224.956-.3.231-.59.463-.892.691-1.512,1.162-3.043,2.3-4.606,3.386-.371.259-.749.519-1.118.772a58.956,58.956,0,0,1-9.932,5.457l-.045.019a39.439,39.439,0,0,1-5.276,1.815,31.7,31.7,0,0,1-3.108.671,27.526,27.526,0,0,1-8.426.145c-5.5-.777-10.659-3.344-16.148-4.2-11.325-1.753-22.322,3.9-32.978,8.341q-3.913,1.634-7.912,3.065-2.649.954-5.324,1.815A168.09,168.09,0,0,1,48.922,215.1a77.476,77.476,0,0,1-14.183.382,48.141,48.141,0,0,1-5.31-.689,30.688,30.688,0,0,1-16.039-7.8,37.458,37.458,0,0,1-8.37-12.984q-1.21-2.907-2.132-5.947a66.183,66.183,0,0,1-2.172-9.707c-.109-.742-.207-1.486-.279-2.23q-.218-1.914-.324-3.846A66.425,66.425,0,0,1,2.1,151.933c1.9-7.355,5.078-14.4,6.475-21.821.059-.312.112-.625.165-.937q.279-1.673.425-3.405c.7-9.08-2.021-17.967-4.173-26.869-.075-.312-.151-.624-.224-.936Q4.419,96.485,4.106,95a74.717,74.717,0,0,1-.769-28.883c.056-.312.12-.627.184-.936A46.645,46.645,0,0,1,10.05,48.9a56.5,56.5,0,0,1,12.3-12.973q3.4-2.7,7.023-5.058,2.607-1.689,5.31-3.2A88.7,88.7,0,0,1,82.269,16.524q1.305.067,2.6.178,1.364.117,2.719.279c10.573,1.218,20.86,4.236,31.086,7.538q5.139,1.672,10.262,3.344,2.282.741,4.559,1.463c7.448,2.344,15.019,4.459,22.659,6.053q2.658.557,5.31,1.017a125.865,125.865,0,0,0,18.611,1.912q3.633.089,7.266-.075,1.836-.084,3.675-.245c12.663-1.081,24.873-4.707,37.134-8.113,1.772-.493,3.546-.984,5.31-1.458,2.331-.624,4.664-1.229,7.006-1.786,14.583-3.492,27.579-1.485,41.136,5.716,3.074,1.636,6.149,3.609,8.049,6.664s2.362,6.836,2.714,10.476c.5,5.178.838,10.429.947,15.7,0,.312,0,.624.02.936A166.592,166.592,0,0,1,291.149,97.965Z" fill="#f0efff"/>
    <path id="Path_31" data-name="Path 31" d="M194.425,129.186h-.953v.937h1.079Zm-10.8,0a.088.088,0,0,0,0,.023l-.083.774v.14h8.272v-.056l.59-.881Zm-22.12,0V98.9h9.5c-.1-.084-.2-.167-.31-.245l-.14-.106c-.059-.047-.117-.092-.179-.134s-.206-.148-.315-.22-.177-.12-.28-.178l-.064-.042H161.5V96.318l-.221.106-.235.131h-.016l-.051.031-.145.095c-.05.031-.1.061-.148.095-.145.1-.28.2-.433.312l-.14.112c-.1.072-.184.148-.279.223-.372.3-.738.621-1.118.914-.1.075-.19.148-.28.217a7.294,7.294,0,0,1-.631.412,3.067,3.067,0,0,1-.28.153l-.156.072-.143.061a5.961,5.961,0,0,1-1.04.329v29.6H141.934a.451.451,0,0,0,.028.1c.078.279.157.557.232.836h14v32.464h.218l.249.017.453.034.732.072.33.039.363.045h.053c.21.028.422.061.637.094l.137.023.308.05.441.078,1.059-.056.146.031a.861.861,0,0,1,.179.036V130.123H183.52v-.14l.084-.774a.088.088,0,0,1,0-.023Zm32.922,0h-.953v.937h1.079Zm-11.4,0-.1.937h9.2l.626-.937Zm-21.519,0V98.9h9.5c-.1-.084-.2-.167-.31-.245l-.14-.106c-.059-.047-.118-.092-.179-.134s-.207-.148-.316-.22-.176-.12-.279-.178l-.065-.042H161.5V96.318l-.221.106-.235.131h-.016l-.051.031-.145.095c-.05.031-.1.061-.148.095-.145.1-.28.2-.433.312l-.14.112c-.1.072-.184.148-.279.223-.372.3-.738.621-1.118.914-.1.075-.19.148-.28.217a7.294,7.294,0,0,1-.631.412,3.067,3.067,0,0,1-.28.153l-.156.072-.143.061a5.961,5.961,0,0,1-1.04.329v29.6H141.934a.451.451,0,0,0,.028.1c.078.279.159.557.235.836H156.19v32.462l.218.014.249.016.453.034.732.072.33.039.363.045h.053c.21.028.422.061.637.1l.137.022.308.05.441.078,1.059-.056.146.031a.861.861,0,0,1,.179.036V130.123h21.438l.1-.937Zm72.009-63.067H293.39c0-.312,0-.624-.02-.936H233.518V28.412c-1.777.474-3.552.964-5.31,1.458V65.183H163.09L162.926,65l.248-.279,24.22-26.506q-3.635.167-7.267.075L161.5,58.667V36.391q-2.666-.46-5.31-1.017V57.641L128.964,27.858c-3.418-1.115-6.836-2.249-10.263-3.344L155.712,65l-.165.178H87.616V16.969q-1.358-.153-2.719-.279-1.3-.114-2.6-.178v48.67H34.7V27.671q-2.708,1.5-5.31,3.2V65.183H3.51c-.064.309-.129.624-.184.936H29.37V97.965H4.768c.073.312.148.624.224.936h24.39v30.285H8.731c-.053.312-.106.625-.165.937H29.381V214.8a48.137,48.137,0,0,0,5.31.689V130.123h47.6v77.86q2.677-.867,5.324-1.814V130.123h68.567v68.028a39.577,39.577,0,0,0,5.276-1.814l.045-.02V130.123h66.688v31.9q2.652-.476,5.31-.911v-30.99H280.92q.234-.468.461-.937H233.518V98.9h57.468c.059-.312.112-.624.165-.936H233.518Zm-198.813,0H82.291V97.965H34.7Zm0,63.067V98.9H82.291v30.285ZM87.618,66.119h68.564V97.965H87.616Zm0,63.067V98.9h68.564v30.285Zm140.576,0H161.5V98.9h66.688Zm0-31.213H161.5v-31l.936-.853h65.752Zm-44.568,31.213a.088.088,0,0,0,0,.023l-.084.774v.14h8.273v-.056l.59-.881Zm10.8,0h-.953v.937h1.079Zm-32.922,0V98.9h9.5c-.1-.084-.2-.167-.31-.245l-.14-.106c-.059-.047-.117-.092-.179-.134s-.207-.148-.316-.22-.176-.12-.279-.178l-.064-.042H161.5V96.318l-.221.106-.235.131h-.016l-.051.031-.145.095c-.05.031-.1.061-.148.095-.145.1-.28.2-.433.312l-.14.112c-.1.072-.184.148-.279.223-.372.3-.738.621-1.118.914-.1.075-.19.148-.28.217a7.294,7.294,0,0,1-.631.412,3.067,3.067,0,0,1-.28.153l-.156.072-.143.061a5.961,5.961,0,0,1-1.04.329v29.6H141.934a.451.451,0,0,0,.028.1c.078.279.157.557.232.836h14v32.464h.218l.249.017.453.034.732.072.33.039.363.045h.053c.21.028.422.061.637.094l.137.023.308.05.441.078,1.059-.056.146.031a.861.861,0,0,1,.179.036V130.123H183.52v-.14l.084-.774a.088.088,0,0,1,0-.023Z" fill="#6c63ff" opacity="0.1"/>
    <path id="Path_32" data-name="Path 32" d="M57.583,44.192h.425a1.014,1.014,0,0,1-.506-.817h0c0-.646.794-1.173,1.764-1.173H71.6c.97,0,1.763.527,1.763,1.173s-.794,1.173-1.763,1.173h-.411a1.017,1.017,0,0,1,.5.817c0,.557-.576,1.014-1.347,1.14H73.9c.967,0,1.761.527,1.761,1.173s-.794,1.17-1.761,1.17H61.549c-.967,0-1.761-.527-1.761-1.17,0-.557.576-1.014,1.347-1.14H57.583c-.967,0-1.761-.527-1.761-1.173S56.61,44.192,57.583,44.192Z" fill="#6c63ff" opacity="0.1"/>
    <path id="Path_33" data-name="Path 33" d="M191.317,55.359h.414a1.019,1.019,0,0,1-.506-.819h0c0-.644.794-1.171,1.764-1.171h12.338c.97,0,1.764.527,1.764,1.171s-.794,1.173-1.764,1.173h-.41a1.031,1.031,0,0,1,.354.347,1.016,1.016,0,0,1,.149.472c0,.557-.576,1.012-1.347,1.137h3.552c.967,0,1.76.529,1.76,1.173s-.793,1.173-1.76,1.173H195.289c-.967,0-1.761-.527-1.761-1.173,0-.557.576-1.014,1.347-1.137h-3.558c-.967,0-1.76-.529-1.76-1.173S190.356,55.359,191.317,55.359Z" fill="#6c63ff" opacity="0.1"/>
    <path id="Path_34" data-name="Path 34" d="M38.654,103.146h.414a1.019,1.019,0,0,1-.5-.82h0c0-.643.791-1.173,1.761-1.173H52.664c.97,0,1.764.53,1.764,1.173s-.794,1.174-1.764,1.174h-.411a1.02,1.02,0,0,1,.5.819c0,.557-.576,1.012-1.347,1.137h3.552c.97,0,1.761.527,1.761,1.173s-.791,1.174-1.761,1.174H42.62c-.967,0-1.761-.53-1.761-1.174,0-.557.579-1.014,1.347-1.14H38.654c-.967,0-1.761-.526-1.761-1.17S37.687,103.146,38.654,103.146Z" fill="#6c63ff" opacity="0.1"/>
    <path id="Path_35" data-name="Path 35" d="M181.357,183.419q-1.036.819-2.074,1.636c-.4.321-.816.638-1.224.956-.3.231-.59.463-.892.691-1.511,1.162-3.043,2.3-4.605,3.386-.372.259-.749.519-1.118.772a58.965,58.965,0,0,1-9.933,5.457l-.044.02V183.419Z" fill="#65617d"/>
    <path id="Path_36" data-name="Path 36" d="M212.457,132.653l.313-9.628c-.188-.145-.378-.279-.559-.413a51.259,51.259,0,0,0-.492-8.586c-1.263-9.629-9.466-9.838-11.78-7.851a5.593,5.593,0,0,1-1,.686c.21-1.374.47-2.751.657-4.111,1.012-7.335-.559-15.587-6.266-20.328-2.389-1.981-5.31-3.2-7.934-4.858-4.7-2.957-8.415-7.324-13.169-10.2S160.8,63.4,156.651,67.105c-1.607,1.433-2.644,3.42-4.293,4.8-3.074,2.575-7.867,2.745-10.55,5.621-.134.145-.263.293-.386.449-2.235,2.859-1.623,6.914-.911,10.462.858,4.27.5,7.692,4.176,8.918.014.17.025.34.044.507a18.086,18.086,0,0,0,7.982,13.021l-.6.212c-1.587.557-3.016,1.1-3.929,1.468-3.354,1.363-10.414,3.138-10.414,3.138s-.167,2.007-.137,4.967c-2.353,2.55-6.279,7.031-7.434,9.687-1.676,3.874-11.151,14.968-13.674,16.643s-5.26,3.662-5.26,3.662-4,2.2-5.889,2.408a31.791,31.791,0,0,1-5.365-.63s-16.2-19.787-15.145-4.6,13.988,15.7,13.988,15.7l13.044-.209s7.048.942,10.2-1.672c2.694-2.23,16.657-14.462,21.142-20.01.1.114.207.225.316.334,0,0,1.786-2.3,2,0s-1.16,3.344-.422,4.18,2.945,3.768,3.049,4.919-2.943,5.853,2.207,9.42c.081.056.168.109.263.162.92,2.087,3.843,4.13,3.843,4.13l15.776-.209,29.767,2.3s.886-.778,2.085-2.049c1.6,1.466,3.823,2.723,6.327,1.951,0,0,3.578-4.289,3.684-7.115,0,0-2.314-5.966-3.354-7.744s.738-5.652.738-5.652,1.26-3.768,2-3.768.21-2.508.21-2.508a3.039,3.039,0,0,1-.316-2.826A26.965,26.965,0,0,0,212.457,132.653Z" fill="#fff"/>
    <path id="Path_37" data-name="Path 37" d="M194.612,130.485l-1.118,1.3-4.516,5.245-5.9.357-9.443.58s-12.733-15.3-10.341-18.631a6.079,6.079,0,0,0,.839-4.283c-.022-.206-.053-.413-.09-.616a17.778,17.778,0,0,0-1.486-4.571l.313-.142.2-.092,11.134-5.066,2.756-1.254a7.42,7.42,0,0,0,.754,2.168c.053.106.112.212.174.312,3.8,6.271,15.977,2.305,15.977,2.305Z" fill="#ee8e9e"/>
    <path id="Path_38" data-name="Path 38" d="M211.076,122.657a18.278,18.278,0,0,1-.7,5.434l-15.76,2.394-.59-4.08-2.333-16.111,2.191-2.185a5.865,5.865,0,0,0,5.011-1.248c2.294-1.979,10.435-1.77,11.687,7.8a52.893,52.893,0,0,1,.5,7.993Z" fill="#ee8e9e"/>
    <path id="Path_39" data-name="Path 39" d="M207.345,167.116s3.547-4.267,3.653-7.076l-3.55-5.933-3.13-3.344-5.846,11.253S202.334,168.677,207.345,167.116Z" fill="#dfe5ee"/>
    <path id="Path_40" data-name="Path 40" d="M207.345,167.116s3.547-4.267,3.653-7.076l-3.55-5.933-3.13-3.344-5.846,11.253S202.334,168.677,207.345,167.116Z" fill="#603556" opacity="0.1"/>
    <path id="Path_41" data-name="Path 41" d="M178.059,186.011c-.3.231-.59.463-.892.691-1.512,1.162-3.043,2.3-4.605,3.386-.372.26-.749.519-1.118.772H82.291l-26.377-.942L34.7,189.74l-5.31-.279L2.9,188.068a66.169,66.169,0,0,1-2.183-9.715c-.109-.742-.207-1.486-.279-2.23l28.945,1.6,5.31.3,47.589,2.648,5.324.295,68.567,3.818,5.276.3h.045Z" fill="#d48a9b"/>
    <path id="Path_42" data-name="Path 42" d="M213.815,165.251a74.877,74.877,0,0,0-16.769,6.879c-.422.242-.838.49-1.26.744s-.838.507-1.244.769-.813.521-1.215.786l-.621.418-.606.412c-.6.41-1.188.836-1.778,1.249l-.022.016c-.389.279-.774.558-1.16.837-2.177,1.608-4.307,3.291-6.428,4.98q-.671.534-1.344,1.067l-2.068,1.636c-.4.32-.816.638-1.224.956-.3.231-.59.463-.892.691l-15.65-.744h-.045l-5.277-.245-68.6-3.241-5.324-.254L34.7,179.952l-5.31-.253L.715,178.353c-.109-.742-.207-1.486-.279-2.23q-.218-1.914-.324-3.846L29.39,161.966l5.31-1.876,4.824-1.7,8.79.457,20.315,1.04L82.3,160.6l5.324.279,3.4.178.813.045,28.624,1.491.3.019,12.772.663h.229l1.277.064,4.354.229,5.445.279,1.794.094.338.02,2.538.131.723.036,2.423.128.965.053h.232l2.266.12,3.51.184h.017l1.09.056h.117l.652.036,1.6.084,1.4.072h.014l1.567.081h.026l1.187.064.911.047,3.234.17.581.031h.2l.28.017.947.05.425.022,3.3.17h.3l4.868-.042h.034l18.509-.15h1.831l5.958-.047h.889Z" fill="#efc6cd"/>
    <path id="Path_43" data-name="Path 43" d="M88.893,165.633l1.721,9.133,46.807-.7s3.521,1.014,3.443-1.795c0,0,7.123-6.714,43.206,1.092l-13.853-10.849-37.869,2.029L88.437,163.37Z" fill="#6c63ff"/>
    <path id="Path_44" data-name="Path 44" d="M89.753,163.448l1.643,9.913s40.244-1.17,46.571-.078l-4.781-9.054S108.853,161.966,89.753,163.448Z" fill="#fff"/>
    <path id="Path_45" data-name="Path 45" d="M89.753,163.448l1.643,9.913s40.244-1.17,46.571-.078l-4.781-9.054S108.853,161.966,89.753,163.448Z" fill="#603556" opacity="0.1"/>
    <path id="Path_46" data-name="Path 46" d="M90.354,163.412l1.621,9.219s39.733-1.087,45.993-.072l-4.714-8.419S109.213,162.033,90.354,163.412Z" fill="#fff"/>
    <path id="Path_47" data-name="Path 47" d="M91.084,163.7l1.579,8.623s38.86-1.017,45-.067l-4.611-7.878S109.532,162.4,91.084,163.7Z" fill="#603556" opacity="0.1"/>
    <path id="Path_48" data-name="Path 48" d="M91.4,163.382l1.587,8.639s38.861-1.017,45-.067l-4.623-7.887S109.845,162.091,91.4,163.382Z" fill="#fff"/>
    <path id="Path_49" data-name="Path 49" d="M63.9,139.935s2.035,2.651-.936,6.655-5.425,7.383-4.432,9.88c0,0,4.472-7.435,8.133-7.525S67.918,144.4,63.9,139.935Z" fill="#6c63ff"/>
    <path id="Path_50" data-name="Path 50" d="M63.9,139.935a3.22,3.22,0,0,1,.416.836c3.561,4.181,5.458,8.082,2.035,8.166-3.189.089-7.012,5.774-7.929,7.212q.048.162.109.327s4.472-7.436,8.133-7.525S67.918,144.4,63.9,139.935Z" fill="#603556" opacity="0.1"/>
    <path id="Path_51" data-name="Path 51" d="M67.683,143.316c0,.931-.106,1.689-.235,1.689s-.235-.758-.235-1.689.131-.5.26-.5S67.683,142.382,67.683,143.316Z" fill="#ffd037"/>
    <path id="Path_52" data-name="Path 52" d="M68.98,144.428c-.822.449-1.537.719-1.6.605s.559-.558,1.375-1.015.5-.122.559,0S69.8,143.982,68.98,144.428Z" fill="#ffd037"/>
    <path id="Path_53" data-name="Path 53" d="M53.162,139.935s-2.035,2.651.939,6.655,5.422,7.383,4.432,9.88c0,0-4.486-7.435-8.135-7.525S49.146,144.4,53.162,139.935Z" fill="#6c63ff"/>
    <path id="Path_54" data-name="Path 54" d="M53.162,139.935a3.354,3.354,0,0,0-.416.836c-3.561,4.181-5.458,8.082-2.035,8.166,3.189.089,7.015,5.774,7.931,7.212a3.359,3.359,0,0,1-.109.327s-4.486-7.436-8.135-7.525S49.146,144.4,53.162,139.935Z" fill="#603556" opacity="0.1"/>
    <path id="Path_55" data-name="Path 55" d="M49.38,143.316c0,.931.106,1.689.235,1.689s.235-.758.235-1.689-.131-.5-.26-.5S49.38,142.382,49.38,143.316Z" fill="#ffd037"/>
    <path id="Path_56" data-name="Path 56" d="M48.084,144.428c.822.449,1.54.719,1.6.605s-.559-.558-1.375-1.015-.5-.122-.559,0S47.262,143.982,48.084,144.428Z" fill="#ffd037"/>
    <path id="Path_57" data-name="Path 57" d="M69.466,152.894l-.1.837-.143,1.167-.059.488-.142,1.17-.062.488-.145,1.171-1.627,13.3c-.145,1.187-2.09,2.112-4.438,2.112H54.3c-2.348,0-4.29-.925-4.435-2.112l-1.629-13.3-.142-1.171-.059-.488-.145-1.17-.059-.488-.142-1.167-.1-.837c-.081-.671.97-1.237,2.3-1.237H67.177C68.5,151.657,69.559,152.223,69.466,152.894Z" fill="#65617d"/>
    <path id="Path_58" data-name="Path 58" d="M69.374,153.722l-.143,1.171h-21.4l-.142-1.171Z" fill="#9d9cb5"/>
    <path id="Path_59" data-name="Path 59" d="M69.173,155.38l-.143,1.171H48.039l-.145-1.171Z" fill="#9d9cb5"/>
    <path id="Path_60" data-name="Path 60" d="M68.969,157.039l-.143,1.167H48.24l-.142-1.167Z" fill="#9d9cb5"/>
    <path id="Path_61" data-name="Path 61" d="M95.259,151.819s-5.427-5.2-5.218,1.56S95.259,151.819,95.259,151.819Z" fill="#ee8e9e"/>
    <path id="Path_62" data-name="Path 62" d="M144,139.955a7.917,7.917,0,0,1-1.616,2.483c-4.706,5.652-18.1,17.4-20.72,19.578-3.13,2.6-10.123,1.672-10.123,1.672L98.6,163.9s-12.836-.521-13.882-15.606,15.027,4.578,15.027,4.578a31.439,31.439,0,0,0,5.324.625c1.878-.207,5.843-2.392,5.843-2.392s2.714-1.978,5.218-3.642,11.9-12.7,13.569-16.549c1.059-2.444,4.471-6.44,6.827-9.032,1.353-1.491,2.356-2.508,2.356-2.508S144.726,136.728,144,139.955Z" fill="#ee8e9e"/>
    <path id="Path_63" data-name="Path 63" d="M144,139.955a7.9,7.9,0,0,1-1.616,2.483c-4.751-4.824-5.743-14.45-5.855-20.57,1.353-1.491,2.356-2.508,2.356-2.508S144.726,136.728,144,139.955Z" fill="#603556" opacity="0.1"/>
    <path id="Path_64" data-name="Path 64" d="M193.492,131.789l-4.514,5.245-5.9.357-9.443.58s-12.733-15.3-10.341-18.631a6.079,6.079,0,0,0,.839-4.283c-.022-.206-.053-.413-.09-.616a17.778,17.778,0,0,0-1.486-4.571l.313-.142.2-.092a19.955,19.955,0,0,1,1.023,4.267c.03.2.058.4.086.616.1.752.188,1.588.28,2.508.726,8.422,6.039,11.591,8.437,12.6a24.415,24.415,0,0,1,2.258,1.089,12.075,12.075,0,0,0,7.574,1.366c5.919-.775,10.746-5.064,10.746-5.064l.025,4.222Z" fill="#603556" opacity="0.1"/>
    <path id="Path_65" data-name="Path 65" d="M193.673,164.516s-38.822-.106-43.939-3.643-2.085-8.221-2.191-9.366-2.295-4.058-3.024-4.894.626-1.873.416-4.161-1.981,0-1.981,0c-7.308-7.391-5.743-26.122-5.743-26.122s6.987-1.766,10.34-3.124c.909-.367,2.323-.891,3.913-1.457l.59-.212c4.1-1.463,8.974-3.116,8.974-3.116s.936-.66,1.878,1.316a17.35,17.35,0,0,1,1.21,4.71c.031.2.059.4.086.615.1.753.188,1.589.28,2.509.727,8.422,6.039,11.59,8.437,12.6a24.172,24.172,0,0,1,2.258,1.09,12.075,12.075,0,0,0,7.574,1.365c5.919-.774,10.746-5.063,10.746-5.063l.025,4.222.073,12.686Z" fill="#dfe5ee"/>
    <path id="Path_66" data-name="Path 66" d="M192,148.073l-.626,3.955s-15.447,3.848-21.5,4.994-19.1-.312-20.039,2.185,3.966,5.933,3.966,5.933l15.651-.209,29.534,2.291s11.272-9.888,7.619-16.758S192,148.073,192,148.073Z" fill="#ee8e9e"/>
    <path id="Path_67" data-name="Path 67" d="M160.173,116.852s-7.1,5.827-5.741,8.639S160.173,116.852,160.173,116.852Z" fill="#603556" opacity="0.1"/>
    <path id="Path_68" data-name="Path 68" d="M151.4,127.361s-7.2,12.385-6.783,13.321,2.4,4.267,2.3,1.77S151.4,127.361,151.4,127.361Z" fill="#603556" opacity="0.1"/>
    <path id="Path_69" data-name="Path 69" d="M154.329,129.549s-1.677,7.7-3.34,10.927S154.329,129.549,154.329,129.549Z" fill="#603556" opacity="0.1"/>
    <path id="Path_70" data-name="Path 70" d="M177.9,105.8a18.053,18.053,0,0,1-13.723,9.258h-.033a18.059,18.059,0,0,1-12.705-3.316c4.192-1.511,9.564-3.328,9.564-3.328s.936-.66,1.878,1.316l14.091-6.41a7.417,7.417,0,0,0,.928,2.48Z" fill="#603556" opacity="0.1"/>
    <path id="Path_71" data-name="Path 71" d="M180.1,96.557a17.882,17.882,0,0,1-2.376,8.935,18.115,18.115,0,0,1-13.635,8.968h-.037a17.468,17.468,0,0,1-2.006.115A18.037,18.037,0,0,1,144.111,98.6,17.243,17.243,0,0,1,144,96.569a18.054,18.054,0,0,1,36.108,0Z" fill="#ee8e9e"/>
    <path id="Path_72" data-name="Path 72" d="M191.795,130.624l1.677-2.508s9.183-10.927,18.166-3.954l-.313,9.575a25.3,25.3,0,0,1-1.045,4.459,3.037,3.037,0,0,0,.313,2.812s.522,2.509-.207,2.509-1.985,3.745-1.985,3.745-1.774,3.852-.729,5.621,3.34,7.7,3.34,7.7-3.653-2.184-4.7-5.827c0,0-8.871-6.87-15.76-2.508Z" fill="#603556" opacity="0.1"/>
    <path id="Path_73" data-name="Path 73" d="M211.076,122.657a18.25,18.25,0,0,1-.705,5.434l-15.759,2.394-.59-4.08C196.085,124.259,203.586,117.437,211.076,122.657Z" fill="#603556" opacity="0.1"/>
    <path id="Path_74" data-name="Path 74" d="M191.795,130.067l1.677-2.508s9.183-10.928,18.166-3.955l-.313,9.576a25.325,25.325,0,0,1-1.045,4.459,3.037,3.037,0,0,0,.313,2.812s.522,2.508-.207,2.508-1.985,3.746-1.985,3.746-1.774,3.851-.729,5.621,3.34,7.7,3.34,7.7-3.653-2.185-4.7-5.827c0,0-8.871-6.87-15.76-2.508Z" fill="#dfe5ee"/>
    <path id="Path_75" data-name="Path 75" d="M206.613,122.991s-15.131,9.264-14.4,17.387C192.212,140.378,200.666,125.488,206.613,122.991Z" fill="#603556" opacity="0.1"/>
    <path id="Path_76" data-name="Path 76" d="M193.489,131.792l.072,12.686c-2.861.128-5.558-.242-7.691-2.09a9.2,9.2,0,0,1-2.794-4.989,17.63,17.63,0,0,1-.364-4.718.366.366,0,0,1,0-.047c.176-3.5.984-7.006.559-10.487s-2.54-7.154-5.995-7.887a3.633,3.633,0,0,1-1.934-.7,2.791,2.791,0,0,1-.452-2.2l.1-1.3c.026-.335.037-.666.037-1a12.782,12.782,0,0,0-10.341-12.524l-.112-.02a7.082,7.082,0,0,0-2.957-.165c-1.85.426-3.046,2.216-4.751,3.066-3.269,1.628-8.722-.153-12.146-.713q-.335-.054-.64-.125a17.461,17.461,0,0,1-.114-2.032,18.055,18.055,0,1,1,33.732,8.935c.054.106.112.211.174.312,3.8,6.27,15.977,2.3,15.977,2.3l.733,22.376Z" fill="#603556" opacity="0.1"/>
    <path id="Path_77" data-name="Path 77" d="M157.227,99.449c1.693-.853,2.889-2.642,4.751-3.066a7.147,7.147,0,0,1,2.959.162l.112.022a12.79,12.79,0,0,1,10.293,13.525l-.1,1.3a2.751,2.751,0,0,0,.456,2.193,3.536,3.536,0,0,0,1.931.7c3.454.736,5.57,4.389,5.995,7.89s-.4,7.014-.559,10.531.486,7.4,3.152,9.71c4.193,3.623,10.565,1.561,16.112,1.229-2.454,0-4.293-2.525-4.427-4.966s.956-4.766,2-6.967,2.087-4.571,1.855-7.007c-.318-3.344-2.962-6.022-3.974-9.241-1.179-3.746-.042-7.767.492-11.66,1-7.291-.559-15.5-6.218-20.211-2.37-1.97-5.268-3.183-7.873-4.833-4.667-2.951-8.348-7.279-13.066-10.15s-11.341-3.935-15.457-.256c-1.593,1.424-2.622,3.4-4.26,4.774-3.2,2.689-8.286,2.74-10.852,6.039-2.207,2.84-1.609,6.873-.9,10.4.942,4.7.411,8.361,5.45,9.2C148.5,99.3,153.954,101.079,157.227,99.449Z" fill="#603556"/>
    <path id="Path_78" data-name="Path 78" d="M199.042,141.061c-4.039.494-8.041.747-10.981-1.795-2.666-2.31-3.323-6.189-3.152-9.709s.986-7.037.559-10.534-2.541-7.152-5.995-7.887a3.589,3.589,0,0,1-1.931-.7,2.775,2.775,0,0,1-.456-2.2l.1-1.3a12.787,12.787,0,0,0-10.293-13.522l-.112-.022a7.15,7.15,0,0,0-2.96-.162c-1.85.426-3.046,2.229-4.751,3.066-3.272,1.63-8.719-.151-12.148-.711-5.031-.822-4.505-4.487-5.45-9.2-.528-2.631-1-5.546-.28-8.037a4.4,4.4,0,0,0-.385.449c-2.208,2.84-1.61,6.872-.9,10.4.942,4.7.411,8.361,5.45,9.2,3.426.557,8.876,2.341,12.149.711,1.693-.853,2.889-2.642,4.751-3.066a7.145,7.145,0,0,1,2.959.162l.112.022a12.791,12.791,0,0,1,10.293,13.524l-.1,1.3a2.752,2.752,0,0,0,.456,2.193,3.544,3.544,0,0,0,1.931.7c3.455.736,5.57,4.389,5.995,7.889s-.394,7.015-.559,10.532.486,7.4,3.152,9.71c4.193,3.623,10.565,1.56,16.112,1.229A4.252,4.252,0,0,1,199.042,141.061Z" fill="#603556" opacity="0.1"/>
    <path id="Path_79" data-name="Path 79" d="M85.62,150.358l17.23-6.409a1.64,1.64,0,0,1,2.11.958h0a1.633,1.633,0,0,1-.962,2.1l-17.229,6.41-3.695-.368Z" fill="#5c5c8e"/>
    <path id="Path_80" data-name="Path 80" d="M104.44,144.383a1.634,1.634,0,0,1-.964,2.1l-17.241,6.432-2.772-.278-.4.423,3.695.368,17.23-6.41a1.634,1.634,0,0,0,.961-2.1h0a1.637,1.637,0,0,0-.67-.816,1.914,1.914,0,0,1,.162.281Z" fill="#fff" opacity="0.1"/>
    <path id="Path_81" data-name="Path 81" d="M85.623,150.358l1.146,3.063-3.029-.3-.662-.066.906-.959Z" fill="#efc8c4"/>
    <path id="Path_82" data-name="Path 82" d="M83.98,152.083a.727.727,0,0,1,.179.193.278.278,0,0,1,0,.3.593.593,0,0,1-.165.12.554.554,0,0,0-.246.412l-.665-.064Z" fill="#727a9c"/>
    <path id="Path_83" data-name="Path 83" d="M139.718,169.92s14.924-3.125,39.965.836l-9.81-7.179-17.847-3.643L139.4,163.278Z" fill="#fff"/>
    <path id="Path_84" data-name="Path 84" d="M139.718,169.92s14.924-3.125,39.965.836l-9.81-7.179-17.847-3.643L139.4,163.278Z" fill="#603556" opacity="0.1"/>
    <path id="Path_85" data-name="Path 85" d="M137.968,173.3s7.515-20.272,46.114.064l-13.854-8.89s-33.188-9.144-37.022,1.394Z" fill="#fff"/>
    <path id="Path_86" data-name="Path 86" d="M137.968,173.283s7.515-21.673,46.114.39l-13.854-9.642s-33.2-10.936-37.041.51Z" fill="#603556" opacity="0.1"/>
    <path id="Path_87" data-name="Path 87" d="M137.968,173.292s7.515-21.994,46.114.069l-13.854-9.642s-33.188-10.624-37.022.836Z" fill="#fff"/>
    <path id="Path_88" data-name="Path 88" d="M137.968,173.3s7.516-24.444,46.114.376l-13.865-10.849s-33.188-11.148-37.022,1.717Z" fill="#603556" opacity="0.1"/>
    <path id="Path_89" data-name="Path 89" d="M137.968,173.283s7.516-24.742,46.114.078l-13.865-10.849s-33.188-11.148-37.022,1.717Z" fill="#fff"/>
    <path id="Path_90" data-name="Path 90" d="M253.766,170.953s-9.265,9.9-.925,14.7a2.316,2.316,0,0,0,2.646.624s-.525-.465.529-1.362a6.279,6.279,0,0,0,.992-1.087,3.071,3.071,0,0,0,.576-1.856h0s1.212-3.927-2.642-9.024c0,0-.349-1.706-.645-1.893l-.7,2.378a4.1,4.1,0,0,1,2.434,1.792s-2.331-1.826-2.557-1.444c-.045.078-.316,1.279-.316,1.279s3.074.792,4.035,2.9c0,0-2.484-2.545-4.141-2.445l-.3,1.834s3.289.68,4.471,3.038c0,0-2.688-2.572-4.516-2.631l-.053,1.842s3.194.725,4.17,2.692c0,0-3.407-2.656-4.153-2.268a9.092,9.092,0,0,0,.279,2.14s2.281.558,2.745,1.767c0,0-2.465-1.536-2.678-1.3a9.589,9.589,0,0,0,1.585,3.124,6.934,6.934,0,0,1-1.923-3.005,3.821,3.821,0,0,0-.464,2.138s-.914-1.009.31-2.67a8.775,8.775,0,0,1-.335-2A8.328,8.328,0,0,0,250.376,183s-.28-1.65,1.8-3.263v-1.857a11.868,11.868,0,0,0-2.42,2.982s-.028-1.727,2.462-3.447l.28-1.8a14.163,14.163,0,0,0-2.586,2.625s.319-1.611,2.683-3.138l.327-1.181s-1.33,1.086-1.676,1.432-.478.279-.478.279a5.852,5.852,0,0,1,2.291-2.213A13.249,13.249,0,0,0,253.766,170.953Z" fill="#6c63ff" opacity="0.1"/>
    <path id="Path_91" data-name="Path 91" d="M295.181,9.927S282.8,15.5,288.639,23.134a2.314,2.314,0,0,0,2.2,1.6s-.3-.633,1.015-1.056a6.162,6.162,0,0,0,1.336-.622,3.068,3.068,0,0,0,1.249-1.491h0s2.638-3.155,1.053-9.339c0,0,.339-1.708.137-2l-1.57,1.923a4.089,4.089,0,0,1,1.554,2.589s-1.442-2.581-1.8-2.313c-.073.053-.785,1.056-.785,1.056s2.515,1.912,2.6,4.228c0,0-1.308-3.305-2.878-3.851l-.987,1.577s2.773,1.892,2.957,4.523c0,0-1.487-3.406-3.15-4.164l-.763,1.672s2.669,1.9,2.795,4.088c0,0-2.115-3.762-2.954-3.69a8.66,8.66,0,0,0-.559,2.082s1.884,1.393,1.85,2.687c0,0-1.676-2.363-1.956-2.23a9.514,9.514,0,0,0,.254,3.492,6.9,6.9,0,0,1-.612-3.511,3.817,3.817,0,0,0-1.255,1.795s-.452-1.285,1.32-2.347a8.7,8.7,0,0,1,.464-1.973,8.347,8.347,0,0,0-2.742,1.864s.377-1.63,2.929-2.316l.726-1.706a11.9,11.9,0,0,0-3.387,1.817s.643-1.605,3.605-2.229l.953-1.555a14.3,14.3,0,0,0-3.4,1.427s.92-1.36,3.692-1.862l.757-.964s-1.648.491-2.11.674-.559.075-.559.075a5.882,5.882,0,0,1,2.988-1.159A14.607,14.607,0,0,0,295.181,9.927Z" fill="#6c63ff" opacity="0.1"/>
    <path id="Path_92" data-name="Path 92" d="M177.7,13.377s-18.6,5.3-9.555,13.176a3.588,3.588,0,0,0,3.376,1.672s-.48-.646,1.509-1.039a11.85,11.85,0,0,0,2.007-.591,3.576,3.576,0,0,0,1.85-1.474S180.8,22,178.229,15.707c0,0,.467-1.717.154-2.012l-2.325,1.9s2.236,1.146,2.423,2.659c0,0-2.255-2.645-2.795-2.386-.109.053-1.162,1.045-1.162,1.045s3.879,2,4.055,4.345c0,0-2.068-3.375-4.472-3.969l-1.453,1.566s4.248,1.987,4.6,4.651c0,0-2.342-3.481-4.879-4.292l-1.118,1.672s4.091,1.99,4.36,4.208c0,0-3.307-3.86-4.575-3.812a6.527,6.527,0,0,0-.8,2.093s2.89,1.472,2.876,2.765c0,0-2.61-2.436-3.041-2.308a6.625,6.625,0,0,0,.481,3.537,5.288,5.288,0,0,1-1.023-3.565,4.2,4.2,0,0,0-1.85,1.778s-.721-1.307,1.934-2.333c0,0,.338-1.778.648-1.984a13.7,13.7,0,0,0-4.1,1.811s.526-1.639,4.371-2.263L171.6,19.11s-3.857.87-5.081,1.747c0,0,.93-1.605,5.4-2.163l1.4-1.547A27.566,27.566,0,0,0,168.2,18.5s1.355-1.352,5.539-1.784l1.118-.953s-2.484.451-3.177.624-.839.061-.839.061a11.038,11.038,0,0,1,4.472-1.092S177.86,13.494,177.7,13.377Z" fill="#6c63ff" opacity="0.1"/>
    <path id="Path_93" data-name="Path 93" d="M232.562,220s9.363-9.807,1.071-14.7a2.322,2.322,0,0,0-2.641-.653s.522.471-.54,1.36a6.351,6.351,0,0,0-1,1.076,3.042,3.042,0,0,0-.593,1.851h0s-1.255,3.915,2.552,9.049c0,0,.332,1.708.626,1.9l.729-2.371a4.1,4.1,0,0,1-2.417-1.815s2.311,1.845,2.54,1.466c.048-.078.33-1.273.33-1.273s-3.074-.836-4.008-2.938c0,0,2.46,2.57,4.12,2.483l.319-1.831s-3.282-.71-4.447-3.065c0,0,2.663,2.6,4.491,2.675l.07-1.845s-3.189-.769-4.156-2.747c0,0,3.382,2.692,4.131,2.31a8.238,8.238,0,0,0-.28-2.14s-2.274-.6-2.727-1.795c0,0,2.451,1.56,2.663,1.326a9.549,9.549,0,0,0-1.554-3.138,6.922,6.922,0,0,1,1.9,3.021,3.8,3.8,0,0,0,.484-2.132s.9,1.02-.336,2.667a8.77,8.77,0,0,1,.316,2A8.351,8.351,0,0,0,236.03,208s.28,1.653-1.836,3.244l-.028,1.856a11.843,11.843,0,0,0,2.449-2.96s0,1.731-2.5,3.425l-.28,1.8a14.17,14.17,0,0,0,2.611-2.6s-.336,1.606-2.714,3.111l-.338,1.178s1.341-1.072,1.7-1.415.481-.279.481-.279a5.849,5.849,0,0,1-2.314,2.191A14.23,14.23,0,0,0,232.562,220Z" fill="#6c63ff" opacity="0.1"/>
    <path id="Path_94" data-name="Path 94" d="M141.249.346s1.6,13.444,10.662,10.2A2.318,2.318,0,0,0,154.1,8.932s-.7.1-.7-1.282a6.181,6.181,0,0,0-.193-1.458,3.043,3.043,0,0,0-1.048-1.636h0S149.93,1.1,143.527.755c0,0-1.532-.836-1.867-.73L143.026,2.1a4.1,4.1,0,0,1,2.943-.7s-2.9.6-2.752,1.014c.027.086.771,1.065.771,1.065s2.613-1.839,4.849-1.212c0,0-3.552.245-4.547,1.575l1.193,1.416S148.127,3.188,150.7,3.8c0,0-3.706.39-4.933,1.742l1.392,1.232s2.616-1.968,4.751-1.438c0,0-4.237.881-4.421,1.7A8.937,8.937,0,0,0,149.315,8.2s1.911-1.368,3.124-.95c0,0-2.767.886-2.725,1.2a9.631,9.631,0,0,0,3.415.808,7.107,7.107,0,0,1-3.54-.474,3.817,3.817,0,0,0,1.338,1.733s-1.364.042-1.847-1.951a8.916,8.916,0,0,1-1.747-1.034,8.326,8.326,0,0,0,.959,3.166s-1.448-.836-1.336-3.481l-1.4-1.207a11.852,11.852,0,0,0,.718,3.771s-1.342-1.1-1.051-4.1l-1.2-1.374a14.127,14.127,0,0,0,.338,3.662S143.339,6.686,143.7,3.9L143,2.887s-.025,1.714,0,2.21-.1.543-.1.543a5.848,5.848,0,0,1-.218-3.185A14.2,14.2,0,0,0,141.249.346Z" fill="#6c63ff" opacity="0.1"/>
    <path id="Path_95" data-name="Path 95" d="M209.011,189.512s-13.085-3.623-13.505,5.975a2.307,2.307,0,0,0,.668,2.63s.171-.68,1.456-.164a6.274,6.274,0,0,0,1.426.376,3.06,3.06,0,0,0,1.917-.351h0s4.052-.741,6.8-6.5c0,0,1.356-1.1,1.4-1.446l-2.44.477a4.081,4.081,0,0,1-.47,2.982s.559-2.9.1-2.927c-.092,0-1.283.31-1.283.31s.715,3.082-.713,4.907c0,0,1.118-3.372.26-4.793l-1.772.582s.917,3.222-.631,5.362c0,0,1.045-3.564.251-5.208l-1.66.805s.839,3.16-.467,4.933c0,0,.789-4.242.1-4.724a9.092,9.092,0,0,0-1.769,1.243s.559,2.283-.3,3.244c0,0,.224-2.89-.081-2.968a9.54,9.54,0,0,0-2.045,2.845,6.92,6.92,0,0,1,1.783-3.087,3.843,3.843,0,0,0-2.116.576s.475-1.273,2.515-.958a8.771,8.771,0,0,1,1.624-1.221,8.337,8.337,0,0,0-3.3-.318s1.336-1.014,3.736.09l1.655-.836a11.944,11.944,0,0,0-3.77-.764s1.523-.836,4.192.582l1.727-.588a14.267,14.267,0,0,0-3.527-1.073s1.579-.459,4.03.926l1.2-.26s-1.582-.674-2.054-.836-.47-.278-.47-.278a5.876,5.876,0,0,1,3.027,1A14.531,14.531,0,0,0,209.011,189.512Z" fill="#6c63ff" opacity="0.1"/>
  </g>
</svg>
