<svg width="150" height="117" viewBox="0 0 150 117" fill="none" xmlns="http://www.w3.org/2000/svg">
<g style="mix-blend-mode:screen" opacity="0.42">
<path d="M15.4458 98.6082L0 3.03638L65.2178 19.0647C65.2178 19.0647 62.7391 20.0545 66.9351 21.834C71.1311 23.6136 80.6639 23.2193 81.2349 21.834C81.5662 20.9429 81.5662 19.9558 81.2349 19.0647L149.313 4.02613L148.169 94.2553L86.5737 115.423V117L68.2739 116.459V114.384L15.4458 98.6082Z" fill="#D3D2D6"/>
</g>
<path opacity="0.42" d="M63.2546 18.6059L4.43188 5.05944L11.6199 0.950467L66.1199 13.3055C66.1199 13.3055 63.8908 14.1959 67.6628 15.796C71.4348 17.396 80.0097 17.0411 80.5237 15.796C80.8215 14.9946 80.8215 14.1068 80.5237 13.3055L139.531 0.188965L145.985 5.05944L81.885 19.5189V22.2594H64.8699L63.2546 18.6059Z" fill="#DFDFDF"/>
<g style="mix-blend-mode:screen" opacity="0.42">
<path d="M68.5637 115.967L62.3577 18.1057C62.3577 18.1057 80.5239 22.9067 83.9109 19.2761L87.0686 115.967H68.5637Z" fill="#DFDFDF"/>
</g>
</svg>
