<svg width="74" height="75" viewBox="0 0 74 75" fill="none" xmlns="http://www.w3.org/2000/svg">
<path d="M37.745 44.9001H58.8679C58.0143 50.3426 52.4871 60.854 37.745 60.854C31.5812 60.748 25.706 58.241 21.3848 53.8729C17.0636 49.5048 14.6422 43.6252 14.6422 37.5005C14.6422 31.3758 17.0636 25.4962 21.3848 21.1281C25.706 16.76 31.5812 14.253 37.745 14.147C43.2572 14.0331 48.5927 16.0814 52.5956 19.8482L62.6941 10.1718C55.9542 3.85634 47.009 0.388399 37.745 0.499411C27.8677 0.499411 18.395 4.39768 11.4107 11.3366C4.42641 18.2756 0.502686 27.6868 0.502686 37.5C0.502686 47.3132 4.42641 56.7244 11.4107 63.6634C18.395 70.6023 27.8677 74.5006 37.745 74.5006C59.2398 74.5006 73.4974 59.4876 73.4974 38.344C73.4908 36.2863 73.2946 34.2335 72.9113 32.2114L37.745 44.9001Z" fill="black" stroke="black"/>
</svg>
