<svg width="82" height="82" viewBox="0 0 82 82" fill="none" xmlns="http://www.w3.org/2000/svg">
<g filter="url(#filter0_d)">
<path d="M41.6123 37.0008H58.9749C58.2733 41.4134 53.73 49.9357 41.6123 49.9357C36.5459 49.8498 31.7165 47.8172 28.1646 44.2757C24.6127 40.7342 22.6223 35.9672 22.6223 31.0015C22.6223 26.0358 24.6127 21.2687 28.1646 17.7272C31.7165 14.1857 36.5459 12.1531 41.6123 12.0672C46.1433 11.9748 50.5289 13.6355 53.8192 16.6895L62.12 8.84418C56.5799 3.72379 49.2271 0.91209 41.6123 1.0021C33.4934 1.0021 25.7071 4.16269 19.9661 9.78859C14.2252 15.4145 11 23.0448 11 31.001C11 38.9573 14.2252 46.5876 19.9661 52.2135C25.7071 57.8394 33.4934 61 41.6123 61C59.2806 61 71 48.8279 71 31.6853C70.9946 30.017 70.8333 28.3527 70.5182 26.7132L41.6123 37.0008Z" fill="white"/>
<path d="M41.6123 37.0008H58.9749C58.2733 41.4134 53.73 49.9357 41.6123 49.9357C36.5459 49.8498 31.7165 47.8172 28.1646 44.2757C24.6127 40.7342 22.6223 35.9672 22.6223 31.0015C22.6223 26.0358 24.6127 21.2687 28.1646 17.7272C31.7165 14.1857 36.5459 12.1531 41.6123 12.0672C46.1433 11.9748 50.5289 13.6355 53.8192 16.6895L62.12 8.84418C56.5799 3.72379 49.2271 0.91209 41.6123 1.0021C33.4934 1.0021 25.7071 4.16269 19.9661 9.78859C14.2252 15.4145 11 23.0448 11 31.001C11 38.9573 14.2252 46.5876 19.9661 52.2135C25.7071 57.8394 33.4934 61 41.6123 61C59.2806 61 71 48.8279 71 31.6853C70.9946 30.017 70.8333 28.3527 70.5182 26.7132L41.6123 37.0008Z" stroke="white"/>
</g>
<defs>
<filter id="filter0_d" x="0.5" y="0.5" width="81" height="81" filterUnits="userSpaceOnUse" color-interpolation-filters="sRGB">
<feFlood flood-opacity="0" result="BackgroundImageFix"/>
<feColorMatrix in="SourceAlpha" type="matrix" values="0 0 0 0 0 0 0 0 0 0 0 0 0 0 0 0 0 0 127 0"/>
<feOffset dy="10"/>
<feGaussianBlur stdDeviation="5"/>
<feColorMatrix type="matrix" values="0 0 0 0 0 0 0 0 0 0 0 0 0 0 0 0 0 0 0.5 0"/>
<feBlend mode="normal" in2="BackgroundImageFix" result="effect1_dropShadow"/>
<feBlend mode="normal" in="SourceGraphic" in2="effect1_dropShadow" result="shape"/>
</filter>
</defs>
</svg>
