<svg width="75" height="76" viewBox="0 0 75 76" fill="none" xmlns="http://www.w3.org/2000/svg">
<path d="M38.2423 45.9001H59.3652C58.5117 51.3426 52.9844 61.854 38.2423 61.854C32.0785 61.748 26.2033 59.241 21.8821 54.8729C17.5609 50.5048 15.1395 44.6252 15.1395 38.5005C15.1395 32.3758 17.5609 26.4962 21.8821 22.1281C26.2033 17.76 32.0785 15.253 38.2423 15.147C43.7545 15.0331 49.09 17.0814 53.0929 20.8482L63.1914 11.1718C56.4515 4.85634 47.5063 1.3884 38.2423 1.49941C28.365 1.49941 18.8923 5.39768 11.908 12.3366C4.92373 19.2756 1 28.6868 1 38.5C1 48.3132 4.92373 57.7244 11.908 64.6634C18.8923 71.6023 28.365 75.5006 38.2423 75.5006C59.7371 75.5006 73.9947 60.4876 73.9947 39.344C73.9881 37.2863 73.7919 35.2335 73.4086 33.2114L38.2423 45.9001Z" fill="white" stroke="white"/>
</svg>
