<svg width="180" height="40" viewBox="0 0 180 40" fill="none" xmlns="http://www.w3.org/2000/svg">
<path d="M40.306 13.5411C40.9897 12.4721 41.9145 11.5782 43.006 10.9311C44.0971 10.292 45.3417 9.96223 46.606 9.97705V16.4931H44.914C43.6808 16.4005 42.4552 16.7516 41.458 17.4831C41.0279 17.9455 40.7024 18.4951 40.5037 19.0946C40.3049 19.694 40.2375 20.3292 40.306 20.9571V30.2811H34.15V10.1931H40.306V13.5411ZM48.334 20.2011C48.2933 18.3225 48.694 16.4605 49.504 14.7651C50.208 13.2904 51.3119 12.0431 52.69 11.1651C54.0388 10.3237 55.6004 9.88641 57.19 9.90505C58.4848 9.87638 59.766 10.1735 60.916 10.7691C61.9258 11.2913 62.7773 12.0744 63.382 13.0371V10.1931H69.538V30.2811H63.382V27.4371C62.7577 28.3955 61.8966 29.1767 60.882 29.7051C59.732 30.3006 58.4508 30.5977 57.156 30.5691C55.5757 30.5839 54.0251 30.1399 52.692 29.2911C51.3125 28.399 50.2092 27.1398 49.506 25.6551C48.6966 23.9529 48.2953 22.0855 48.334 20.2011ZM63.382 20.2371C63.4183 19.5767 63.3241 18.9158 63.1048 18.2919C62.8856 17.668 62.5455 17.0934 62.104 16.6011C61.708 16.1729 61.2261 15.833 60.6899 15.6035C60.1537 15.374 59.5752 15.26 58.992 15.2691C58.4099 15.2587 57.832 15.37 57.2955 15.596C56.7589 15.8219 56.2754 16.1574 55.876 16.5811C55.4338 17.0693 55.0931 17.6406 54.8737 18.2617C54.6543 18.8828 54.5606 19.5414 54.598 20.1991C54.5273 21.5377 54.9864 22.8503 55.876 23.8531C56.2697 24.2866 56.7512 24.6315 57.2884 24.8646C57.8257 25.0977 58.4064 25.2137 58.992 25.2051C59.5755 25.2143 60.1545 25.1005 60.691 24.871C61.2276 24.6415 61.7097 24.3015 62.106 23.8731C62.5471 23.3805 62.8868 22.8059 63.1058 22.182C63.3247 21.5581 63.4186 20.8972 63.382 20.2371ZM72.782 20.2011C72.7413 18.3225 73.142 16.4605 73.952 14.7651C74.656 13.2904 75.7599 12.0431 77.138 11.1651C78.4868 10.3237 80.0484 9.88641 81.638 9.90505C82.8927 9.88982 84.1329 10.1736 85.256 10.7331C86.2948 11.2387 87.1824 12.0084 87.83 12.9651V3.64105H93.986V30.2811H87.83V27.4011C87.2334 28.3785 86.3806 29.1739 85.364 29.7011C84.214 30.2966 82.9328 30.5937 81.638 30.5651C80.046 30.5833 78.4828 30.1394 77.138 29.2871C75.7585 28.395 74.6552 27.1358 73.952 25.6511C73.1425 23.9503 72.7405 22.0843 72.778 20.2011H72.782ZM87.83 20.2371C87.8663 19.5767 87.7721 18.9158 87.5528 18.2919C87.3336 17.668 86.9935 17.0934 86.552 16.6011C86.1557 16.1727 85.6736 15.8326 85.137 15.6031C84.6005 15.3736 84.0215 15.2598 83.438 15.2691C82.8556 15.2584 82.2773 15.3696 81.7404 15.5955C81.2034 15.8215 80.7196 16.1572 80.32 16.5811C79.8776 17.0695 79.5367 17.6412 79.3173 18.2626C79.0979 18.8841 79.0043 19.5431 79.042 20.2011C78.9713 21.5397 79.4304 22.8523 80.32 23.8551C80.7137 24.288 81.1949 24.6323 81.7318 24.8651C82.2687 25.0978 82.8489 25.2137 83.434 25.2051C84.0175 25.2143 84.5965 25.1005 85.133 24.871C85.6696 24.6415 86.1517 24.3015 86.548 23.8731C86.9895 23.3807 87.3296 22.8061 87.5489 22.1822C87.7681 21.5583 87.8623 20.8974 87.826 20.2371H87.83ZM117.386 19.9131C117.385 20.5146 117.348 21.1156 117.278 21.7131H103.342C103.362 22.7864 103.794 23.811 104.548 24.5751C105.254 25.2346 106.192 25.5902 107.158 25.5651C107.828 25.6136 108.496 25.4526 109.07 25.1043C109.644 24.7559 110.096 24.2376 110.362 23.6211H116.914C116.582 24.9295 115.959 26.1462 115.092 27.1811C114.2 28.2513 113.075 29.1025 111.802 29.6691C110.408 30.2844 108.898 30.5914 107.374 30.5691C105.543 30.6024 103.735 30.1688 102.118 29.3091C100.595 28.4823 99.3448 27.2318 98.518 25.7091C97.6227 24.0267 97.175 22.1423 97.218 20.2371C97.1739 18.3343 97.6136 16.4514 98.496 14.7651C99.3125 13.2407 100.558 11.9892 102.078 11.1651C103.706 10.3025 105.528 9.86889 107.37 9.90505C109.173 9.87136 110.956 10.2923 112.554 11.1291C114.048 11.9271 115.279 13.1397 116.1 14.6211C116.981 16.2433 117.423 18.0675 117.382 19.9131H117.386ZM111.086 18.2931C111.106 17.8189 111.02 17.3462 110.833 16.91C110.646 16.4738 110.363 16.0852 110.006 15.7731C109.253 15.1372 108.291 14.8037 107.306 14.8371C106.355 14.8088 105.427 15.1288 104.696 15.7371C103.956 16.3968 103.488 17.3077 103.382 18.2931H111.086ZM146.254 9.98105C147.35 9.92714 148.445 10.1008 149.471 10.4912C150.496 10.8815 151.429 11.4801 152.212 12.2491C152.981 13.0996 153.572 14.0948 153.953 15.1764C154.333 16.258 154.494 17.4046 154.426 18.5491V30.2811H148.306V19.3731C148.341 18.8292 148.268 18.2838 148.092 17.768C147.916 17.2522 147.64 16.7762 147.28 16.3671C146.908 16.0037 146.465 15.7216 145.979 15.5388C145.492 15.3559 144.973 15.2763 144.454 15.3051C143.935 15.2763 143.416 15.3559 142.929 15.5388C142.443 15.7216 142 16.0037 141.628 16.3671C141.268 16.7762 140.992 17.2522 140.816 17.768C140.64 18.2838 140.567 18.8292 140.602 19.3731V30.2811H134.482V19.3731C134.517 18.8292 134.444 18.2838 134.268 17.768C134.092 17.2522 133.816 16.7762 133.456 16.3671C133.084 16.0037 132.641 15.7216 132.155 15.5388C131.668 15.3559 131.149 15.2763 130.63 15.3051C130.111 15.2763 129.592 15.3559 129.105 15.5388C128.619 15.7216 128.176 16.0037 127.804 16.3671C127.444 16.7762 127.168 17.2522 126.992 17.768C126.816 18.2838 126.743 18.8292 126.778 19.3731V30.2811H120.622V10.1931H126.778V12.7131C127.42 11.8576 128.26 11.1712 129.226 10.7131C130.294 10.2079 131.465 9.95537 132.646 9.97505C134.057 9.9504 135.45 10.2849 136.696 10.9471C137.873 11.584 138.841 12.5463 139.486 13.7191C140.198 12.5995 141.175 11.6723 142.33 11.0191C143.521 10.3276 144.877 9.96909 146.254 9.98105ZM179.266 10.1971L166.666 39.8211H160.042L164.65 29.5971L156.478 10.1971H163.354L167.998 22.7571L172.606 10.1931L179.266 10.1971Z" fill="#252525"/>
<path d="M15.621 18.5461H23.914C23.579 20.6971 21.409 24.8461 15.621 24.8461C13.2023 24.8025 10.8973 23.811 9.20223 22.0851C7.50714 20.3591 6.5574 18.0367 6.5574 15.6176C6.5574 13.1984 7.50714 10.876 9.20223 9.15008C10.8973 7.42414 13.2023 6.43269 15.621 6.38908C17.785 6.34412 19.8796 7.15357 21.451 8.64208L25.416 4.81908C22.7693 2.32494 19.2575 0.956059 15.621 1.00108C11.7433 1.00108 8.02436 2.5415 5.28239 5.28347C2.54042 8.02544 1 11.7443 1 15.6221C1 19.4998 2.54042 23.2187 5.28239 25.9607C8.02436 28.7027 11.7433 30.2431 15.621 30.2431C24.06 30.2431 29.657 24.3111 29.657 15.9561C29.6544 15.1431 29.5774 14.332 29.427 13.5331L15.621 18.5461Z" fill="#252525" stroke="#252525"/>
</svg>
