<svg width="100" height="100" viewBox="0 0 100 100" fill="none" xmlns="http://www.w3.org/2000/svg">
<rect width="100" height="100" fill="#8767E1"/>
<path d="M50.6123 56.0008H67.9749C67.2733 60.4134 62.73 68.9357 50.6123 68.9357C45.5459 68.8498 40.7165 66.8172 37.1646 63.2757C33.6127 59.7342 31.6223 54.9672 31.6223 50.0015C31.6223 45.0358 33.6127 40.2687 37.1646 36.7272C40.7165 33.1857 45.5459 31.1531 50.6123 31.0672C55.1433 30.9748 59.5289 32.6355 62.8192 35.6895L71.12 27.8442C65.5799 22.7238 58.2271 19.9121 50.6123 20.0021C42.4934 20.0021 34.7071 23.1627 28.9661 28.7886C23.2252 34.4145 20 42.0448 20 50.001C20 57.9573 23.2252 65.5876 28.9661 71.2135C34.7071 76.8394 42.4934 80 50.6123 80C68.2806 80 80 67.8279 80 50.6853C79.9946 49.017 79.8333 47.3527 79.5182 45.7132L50.6123 56.0008Z" fill="white" stroke="white"/>
</svg>
